<?xml version="1.0" encoding="utf-8"?><svg xmlns="http://www.w3.org/2000/svg" xmlns:xlink="http://www.w3.org/1999/xlink"><symbol fill="none" viewBox="0 0 24 24" id="glass" xmlns="http://www.w3.org/2000/svg"><path fill-rule="evenodd" clip-rule="evenodd" d="M5 2a1 1 0 00-1 1c0 2.186.868 4.283 2.414 5.828L11 13.414V20H8a1 1 0 100 2h8a1 1 0 100-2h-3v-6.586l4.586-4.586A8.243 8.243 0 0020 3a1 1 0 00-1-1H5zm2.828 5.414A6.243 6.243 0 016.081 4h11.838a6.243 6.243 0 01-1.747 3.414L12 11.586 7.828 7.414z" fill="#152C70"/></symbol></svg>